<svg xmlns="http://www.w3.org/2000/svg" width="1024" height="1024" viewBox="0 0 1024 1024">
  <defs>
    <radialGradient id="bg" cx="50%" cy="40%" r="72%">
      <stop offset="0" stop-color="#101E12"></stop>
      <stop offset="0.5" stop-color="#091109"></stop>
      <stop offset="1" stop-color="#000000"></stop>
    </radialGradient>
    <radialGradient id="halo" cx="50%" cy="50%" r="50%">
      <stop offset="0" stop-color="rgba(157,196,123,0.45)"></stop>
      <stop offset="0.45" stop-color="rgba(124,168,95,0.16)"></stop>
      <stop offset="1" stop-color="rgba(0,0,0,0)"></stop>
    </radialGradient>
    <radialGradient id="glass" cx="40%" cy="32%" r="80%">
      <stop offset="0" stop-color="rgba(240,250,218,1)"></stop>
      <stop offset="0.26" stop-color="rgba(176,214,138,0.74)"></stop>
      <stop offset="0.58" stop-color="rgba(94,140,79,0.62)"></stop>
      <stop offset="0.84" stop-color="rgba(40,66,42,0.7)"></stop>
      <stop offset="1" stop-color="rgba(10,20,12,0.86)"></stop>
    </radialGradient>
    <radialGradient id="throughLight" cx="50%" cy="72%" r="42%">
      <stop offset="0" stop-color="rgba(157,196,123,0.4)"></stop>
      <stop offset="1" stop-color="rgba(0,0,0,0)"></stop>
    </radialGradient>
    <linearGradient id="leaf" x1="0" y1="0" x2="0" y2="1">
      <stop offset="0" stop-color="#C3E29A"></stop>
      <stop offset="1" stop-color="#6F9C5E"></stop>
    </linearGradient>
    <radialGradient id="baseGlow" cx="50%" cy="50%" r="50%">
      <stop offset="0" stop-color="rgba(124,168,95,0.30)"></stop>
      <stop offset="1" stop-color="rgba(0,0,0,0)"></stop>
    </radialGradient>
  </defs>

  
  <rect width="1024" height="1024" fill="url(#bg)"></rect>

  
  <circle cx="512" cy="494" r="470" fill="url(#halo)"></circle>

  
  <ellipse cx="512" cy="838" rx="250" ry="40" fill="url(#baseGlow)"></ellipse>
  <ellipse cx="512" cy="828" rx="196" ry="24" fill="#16251A" opacity="0.9"></ellipse>

  
  <circle cx="512" cy="500" r="300" fill="url(#glass)" stroke="rgba(188,232,144,0.5)" stroke-width="3"></circle>
  <circle cx="512" cy="500" r="300" fill="url(#throughLight)"></circle>

  
  <path d="M512 362 C 598 410, 598 578, 512 642 C 426 578, 426 410, 512 362 Z" fill="url(#leaf)"></path>
  <path d="M512 388 L512 618" stroke="#3C5E33" stroke-width="6" stroke-linecap="round" opacity="0.7"></path>
  <path d="M512 470 L556 442 M512 538 L560 510" stroke="#3C5E33" stroke-width="4" stroke-linecap="round" opacity="0.45"></path>

  
  <ellipse cx="410" cy="378" rx="78" ry="46" fill="rgba(255,255,255,0.55)" transform="rotate(-28 410 378)"></ellipse>
  <circle cx="372" cy="430" r="14" fill="rgba(255,255,255,0.7)"></circle>
</svg>